<?xml version="1.0" standalone="no"?>
<!DOCTYPE svg PUBLIC "-//W3C//DTD SVG 20010904//EN"
 "http://www.w3.org/TR/2001/REC-SVG-20010904/DTD/svg10.dtd">
<svg version="1.0" xmlns="http://www.w3.org/2000/svg"
 width="820.000000pt" height="860.000000pt" viewBox="0 0 820.000000 860.000000"
 preserveAspectRatio="xMidYMid meet">

<g transform="translate(0.000000,860.000000) scale(0.100000,-0.100000)"
fill="#ffffff" stroke="none">
<path d="M3795 8189 c-822 -68 -1564 -363 -2205 -875 -174 -139 -467 -432
-604 -604 -493 -617 -781 -1319 -868 -2120 -16 -149 -16 -631 0 -780 87 -801
375 -1503 868 -2120 139 -174 431 -466 604 -604 898 -716 2018 -1013 3145
-835 686 109 1317 390 1875 835 173 138 465 430 604 604 699 875 1002 1977
845 3075 -103 717 -386 1369 -847 1947 -137 172 -430 465 -602 602 -620 494
-1316 780 -2105 866 -136 15 -575 21 -710 9z m820 -258 c837 -123 1556 -481
2145 -1071 300 -300 514 -595 704 -970 612 -1211 518 -2674 -245 -3800 -247
-365 -606 -729 -969 -982 -483 -337 -1028 -549 -1640 -640 -139 -20 -192 -23
-510 -23 -383 0 -492 10 -780 71 -720 153 -1356 500 -1880 1024 -669 668
-1049 1521 -1100 2468 -58 1084 362 2148 1146 2901 583 560 1303 910 2099
1020 211 29 205 29 560 26 269 -2 344 -6 470 -24z"/>
</g>
</svg>
