<?xml version="1.0" standalone="no"?>
<!DOCTYPE svg PUBLIC "-//W3C//DTD SVG 20010904//EN"
 "http://www.w3.org/TR/2001/REC-SVG-20010904/DTD/svg10.dtd">
<svg version="1.0" xmlns="http://www.w3.org/2000/svg"
 width="330.000000pt" height="42.000000pt" viewBox="0 0 330.000000 42.000000"
 preserveAspectRatio="xMidYMid meet">

<g transform="translate(0.000000,42.000000) scale(0.100000,-0.100000)"
fill="#fff" stroke="none">
<path d="M160 411 c-81 -25 -131 -75 -150 -153 -38 -152 105 -290 257 -248 82
24 153 115 153 200 0 129 -140 237 -260 201z m142 -42 c41 -21 70 -57 88 -112
28 -88 -37 -201 -131 -225 -24 -6 -45 -10 -46 -8 -2 2 18 40 43 84 40 70 50
82 73 82 15 0 31 8 39 20 12 19 10 20 -56 20 -63 0 -92 -10 -92 -32 0 -4 11
-8 25 -8 14 0 25 -2 25 -5 0 -17 -87 -155 -98 -155 -34 0 -93 43 -118 87 -35
59 -36 123 -3 183 20 36 72 80 94 80 7 0 -55 -116 -87 -162 l-19 -28 68 0 c64
0 93 10 93 32 0 4 -22 8 -50 8 -27 0 -50 3 -50 7 0 11 82 147 94 155 15 10 62
0 108 -23z"/>
<path d="M1055 278 c-8 -24 -25 -103 -25 -120 0 -41 18 -13 29 43 7 34 15 67
18 75 3 8 0 14 -6 14 -7 0 -14 -6 -16 -12z"/>
<path d="M1465 281 c-6 -11 9 -23 19 -14 9 9 7 23 -3 23 -6 0 -12 -4 -16 -9z"/>
<path d="M1712 226 c-14 -76 -15 -86 -3 -86 4 0 14 27 20 61 7 34 15 67 18 75
3 8 -1 14 -9 14 -10 0 -18 -20 -26 -64z"/>
<path d="M2875 279 c-4 -6 -5 -13 -2 -16 7 -7 27 6 27 18 0 12 -17 12 -25 -2z"/>
<path d="M555 268 c-4 -14 -25 -116 -25 -123 0 -3 18 -5 40 -5 22 0 40 5 40
10 0 6 -12 10 -26 10 -25 0 -26 2 -19 38 3 20 9 47 12 60 5 23 -14 32 -22 10z"/>
<path d="M660 265 c-6 -8 -10 -20 -7 -27 2 -7 -4 -23 -15 -35 -16 -17 -18 -25
-9 -42 9 -17 20 -20 61 -20 27 1 47 5 45 9 -3 5 -1 20 5 34 11 30 -3 36 -19 9
-9 -17 -10 -17 -17 1 -5 12 -2 22 9 28 21 11 22 44 1 52 -25 10 -41 7 -54 -9z
m50 -14 c0 -14 -18 -23 -30 -16 -6 4 -8 11 -5 16 8 12 35 12 35 0z m-20 -71
c9 -18 8 -20 -15 -20 -18 0 -25 5 -25 20 0 11 7 20 15 20 8 0 19 -9 25 -20z"/>
<path d="M760 270 c0 -5 9 -10 20 -10 11 0 20 -1 20 -2 0 -2 -7 -28 -15 -58
-8 -30 -15 -56 -15 -57 0 -2 6 -3 14 -3 8 0 18 22 26 60 10 47 17 60 31 60 11
0 19 5 19 10 0 6 -22 10 -50 10 -27 0 -50 -4 -50 -10z"/>
<path d="M931 223 c-6 -31 -11 -62 -11 -70 0 -15 65 -18 75 -3 4 6 -6 10 -23
10 -25 0 -29 3 -25 20 3 13 14 20 29 20 13 0 24 5 24 10 0 6 -9 10 -20 10 -13
0 -20 7 -20 20 0 16 7 20 30 20 17 0 30 5 30 10 0 6 -17 10 -39 10 l-38 0 -12
-57z"/>
<path d="M1851 266 c-7 -9 -11 -21 -8 -28 2 -7 -5 -23 -16 -36 -32 -35 -13
-57 51 -59 39 -1 50 2 46 12 -3 7 -1 23 6 34 13 26 -5 29 -19 4 -9 -17 -10
-17 -17 0 -4 12 0 23 12 32 15 11 17 18 8 32 -14 23 -47 28 -63 9z m49 -15 c0
-14 -18 -23 -30 -16 -6 4 -8 11 -5 16 8 12 35 12 35 0z m-20 -71 c9 -18 8 -20
-15 -20 -18 0 -25 5 -25 20 0 11 7 20 15 20 8 0 19 -9 25 -20z"/>
<path d="M2044 223 c-20 -31 -38 -62 -41 -70 -7 -18 12 -17 27 2 17 20 60 19
76 -2 20 -29 24 -11 12 60 -7 43 -16 67 -24 67 -7 0 -30 -26 -50 -57z m55 -20
c1 -7 -10 -13 -24 -13 l-26 0 17 32 c16 30 18 31 25 13 4 -11 8 -26 8 -32z"/>
<path d="M1308 251 c-9 -11 -14 -22 -10 -26 3 -3 5 -24 3 -45 -2 -35 0 -40 18
-40 22 0 29 16 10 22 -18 6 -1 68 19 69 11 0 12 2 5 6 -7 2 -13 11 -13 19 0
19 -13 18 -32 -5z"/>
<path d="M2302 250 c-12 -10 -18 -21 -13 -24 5 -4 7 -22 4 -41 -4 -27 -2 -36
11 -41 21 -8 35 4 18 15 -17 10 -6 58 17 71 9 5 11 10 4 10 -6 0 -13 6 -15 14
-2 12 -7 11 -26 -4z"/>
<path d="M2791 249 c-13 -10 -18 -19 -11 -19 8 0 10 -12 5 -40 -5 -32 -3 -41
10 -46 9 -4 19 -3 23 1 4 4 1 10 -5 12 -17 6 -6 54 15 71 9 6 11 12 5 12 -7 0
-13 6 -15 14 -2 12 -8 11 -27 -5z"/>
<path d="M1096 218 c-19 -27 -20 -50 -4 -66 15 -15 68 -16 68 -1 0 6 -6 9 -14
6 -8 -3 -22 1 -33 8 -17 13 -16 14 12 15 39 0 58 13 53 36 -5 30 -62 31 -82 2z
m62 -6 c2 -7 -7 -12 -22 -12 -27 0 -35 15 -13 23 17 7 30 3 35 -11z"/>
<path d="M1212 228 c-7 -7 -12 -26 -12 -44 0 -31 13 -44 46 -44 21 0 17 17 -6
23 -38 10 -21 58 25 70 14 3 11 5 -10 6 -17 0 -36 -4 -43 -11z"/>
<path d="M1376 221 c-16 -58 -18 -83 -5 -79 8 3 15 15 17 29 2 13 15 34 29 46
l27 22 -32 -1 c-20 -1 -33 -7 -36 -17z"/>
<path d="M1451 203 c-13 -47 -14 -63 -2 -63 10 0 15 13 26 68 9 45 -12 41 -24
-5z"/>
<path d="M1512 228 c-7 -7 -12 -27 -12 -45 0 -26 5 -34 24 -39 14 -3 31 -2 38
2 9 6 6 10 -12 14 -14 3 -26 13 -28 22 -4 20 27 51 44 44 8 -3 14 -1 14 4 0
14 -54 12 -68 -2z"/>
<path d="M1600 231 c0 -6 11 -9 24 -8 34 3 38 -17 4 -21 -32 -4 -53 -26 -44
-47 4 -11 16 -15 43 -12 33 4 38 8 44 37 4 18 5 39 2 47 -6 15 -73 18 -73 4z
m48 -53 c-5 -16 -48 -24 -48 -10 0 11 17 20 38 21 8 1 12 -5 10 -11z"/>
<path d="M2164 205 c-9 -51 -1 -65 41 -63 31 1 36 5 45 37 12 45 13 61 0 61
-5 0 -14 -18 -20 -40 -8 -30 -16 -40 -31 -40 -19 0 -20 4 -14 40 8 50 -11 55
-21 5z"/>
<path d="M2372 228 c-7 -7 -12 -27 -12 -45 0 -27 5 -34 27 -39 45 -12 81 24
69 69 -5 22 -12 27 -39 27 -18 0 -38 -5 -45 -12z m58 -47 c-13 -25 -43 -24
-48 0 -2 9 5 24 14 34 15 14 19 15 31 2 12 -12 13 -19 3 -36z"/>
<path d="M2490 227 c0 -6 -3 -29 -6 -49 -8 -49 13 -52 22 -3 7 39 28 63 39 45
4 -6 4 -27 1 -46 -10 -48 9 -43 26 8 19 61 42 64 36 4 -4 -31 -2 -46 5 -43 13
4 30 64 24 82 -7 17 -147 19 -147 2z"/>
<path d="M2675 231 c-3 -6 7 -9 21 -8 15 1 29 -4 31 -10 3 -9 -6 -13 -25 -13
-34 0 -55 -20 -46 -43 4 -11 17 -15 44 -14 36 1 38 3 44 40 4 21 4 42 1 48 -8
12 -62 12 -70 0z m45 -51 c0 -12 -28 -25 -36 -17 -9 9 6 27 22 27 8 0 14 -5
14 -10z"/>
<path d="M2854 190 c-8 -38 -8 -50 1 -50 7 0 17 23 22 50 8 37 7 50 -1 50 -7
0 -17 -22 -22 -50z"/>
<path d="M2914 215 c-14 -21 -15 -31 -5 -51 16 -36 69 -31 91 8 20 36 5 62
-38 66 -24 3 -34 -3 -48 -23z m61 -21 c0 -22 -5 -30 -22 -32 -18 -3 -23 1 -23
20 0 26 18 50 35 45 5 -2 10 -17 10 -33z"/>
<path d="M3036 204 c-4 -19 -10 -42 -13 -50 -3 -8 1 -14 11 -14 10 0 16 9 16
24 0 13 9 34 19 47 18 22 20 22 26 6 4 -10 5 -31 1 -48 -8 -42 15 -33 27 10
12 48 4 61 -42 61 -37 0 -39 -2 -45 -36z"/>
</g>
</svg>
