<?xml version="1.0" standalone="no"?>
<!DOCTYPE svg PUBLIC "-//W3C//DTD SVG 20010904//EN"
 "http://www.w3.org/TR/2001/REC-SVG-20010904/DTD/svg10.dtd">
<svg version="1.0" xmlns="http://www.w3.org/2000/svg"
 width="290.000000pt" height="290.000000pt" viewBox="0 0 290.000000 290.000000"
 preserveAspectRatio="xMidYMid meet">
<metadata>
Created by potrace 1.16, written by Peter Selinger 2001-2019
</metadata>
<g transform="translate(0.000000,290.000000) scale(0.100000,-0.100000)"
fill="#1E74A9" stroke="none" >
<path  d="M1247 2884 c-336 -52 -613 -196 -844 -438 -536 -560 -535 -1438 2
-1995 196 -203 415 -333 680 -401 520 -134 1041 15 1412 404 493 515 536 1308
103 1876 -118 155 -322 325 -491 411 -266 134 -584 187 -862 143z m345 -1052
l338 -337 0 -45 0 -45 -338 -337 c-325 -325 -339 -338 -375 -338 -49 0 -73 13
-93 51 -31 62 -23 73 284 381 l286 288 -286 287 c-306 309 -315 321 -284 382
20 39 41 50 91 51 39 0 46 -6 377 -338z"/>
</g>
</svg>
