<?xml version="1.0" encoding="UTF-8"?>
<!DOCTYPE svg PUBLIC "-//W3C//DTD SVG 1.1//EN" "http://www.w3.org/Graphics/SVG/1.1/DTD/svg11.dtd">
<!-- Creator: CorelDRAW X7 -->
<svg xmlns="http://www.w3.org/2000/svg" xml:space="preserve" width="28.7621mm" height="28.7012mm" version="1.1" style="shape-rendering:geometricPrecision; text-rendering:geometricPrecision; image-rendering:optimizeQuality; fill-rule:evenodd; clip-rule:evenodd"
viewBox="0 0 728 726"
 xmlns:xlink="http://www.w3.org/1999/xlink">
 <defs>
  <style type="text/css">
   <![CDATA[
    .fil0 {fill:#FEFEFE}
    .fil1 {fill:#A03578}
    .fil2 {fill:#A03578;fill-rule:nonzero}
   ]]>
  </style>
 </defs>
 <g id="Layer_x0020_1">
  <metadata id="CorelCorpID_0Corel-Layer"/>
  <rect fill="transparent" width="728" height="726"/>
  <g id="_394092516176">
   <path class="fil1" d="M210 194l0 0c9,0 17,7 17,17l0 247c0,10 -8,18 -17,18l0 0c-10,0 -17,-8 -17,-18l0 -247c0,-10 7,-17 17,-17zm327 -25l0 0 0 20 0 6c0,9 -7,5 -10,0 -1,-2 -3,-4 -4,-5 -13,-15 -32,-26 -55,-34 -1,-1 -2,-1 -3,-1 -3,-1 -3,-4 0,-4l3 0 52 0c9,0 17,8 17,18zm-72 160l0 0c1,0 2,0 3,0 23,-6 41,-17 54,-33 2,-1 3,-3 4,-4 2,-4 10,-11 11,0l0 4 0 100 0 6c0,6 -6,5 -8,0 -2,-2 -3,-4 -4,-6 -13,-22 -31,-40 -57,-52 -1,-1 -2,-1 -3,-2 -7,-4 -7,-9 0,-13zm-129 27l0 0 0 82c2,20 6,21 17,21l10 -1c9,-1 13,3 13,13l0 25 66 0c-16,-9 -30,-23 -32,-65 -2,-68 -11,-86 -68,-81 -7,0 -6,2 -6,6zm-2 -155l0 0 0 97c0,7 -2,11 12,11 65,-1 86,-17 84,-57 -3,-47 -10,-58 -81,-61 -15,-1 -15,6 -15,10zm-134 -124l0 0 328 0c46,0 84,37 84,83l0 327c0,46 -38,84 -84,84l-328 0c-46,0 -84,-38 -84,-84l0 -327c0,-46 38,-83 84,-83z"/>
   <g>
    <path class="fil2" d="M156 601l20 0c3,0 6,1 8,1 3,1 4,2 6,4 1,1 2,2 3,4 0,2 1,3 1,5l0 0c0,2 -1,4 -1,6 -1,1 -2,3 -3,4 -2,1 -3,2 -5,3 -2,0 -4,1 -6,1l16 21 -4 0 -16 -20 0 0 -16 0 0 20 -3 0 0 -49zm20 25l0 0c2,0 4,0 5,0 2,-1 4,-2 5,-2 1,-1 2,-3 3,-4 1,-1 1,-3 1,-5l0 0c0,-3 -1,-6 -4,-8 -2,-2 -6,-3 -10,-3l-17 0 0 22 17 0z"/>
    <polygon class="fil2" points="224,601 228,601 228,650 224,650 "/>
    <path class="fil2" d="M277 651c-4,0 -8,-1 -11,-2 -3,-2 -6,-3 -9,-6l2 -3c2,1 3,3 5,3 1,1 2,2 4,3 1,0 2,1 4,1 2,0 3,0 5,0 2,0 4,0 5,0 2,-1 3,-1 4,-2 1,-1 2,-2 2,-3 1,-2 1,-3 1,-4l0 0c0,-2 0,-3 0,-4 -1,-1 -1,-2 -2,-3 -1,-1 -3,-1 -5,-2 -1,-1 -4,-1 -6,-2 -3,0 -6,-1 -8,-2 -2,-1 -4,-2 -5,-3 -1,-1 -2,-2 -3,-4 -1,-1 -1,-3 -1,-5l0 0c0,-2 0,-3 1,-5 1,-1 2,-3 4,-4 1,-1 3,-2 5,-3 1,0 4,-1 6,-1 2,0 3,1 5,1 1,0 3,0 4,1 1,0 3,1 4,2 1,1 2,1 4,2l-3 3c-2,-2 -4,-3 -7,-4 -2,-1 -5,-1 -7,-1 -2,0 -4,0 -5,0 -2,1 -3,2 -4,2 -1,1 -2,2 -2,3 -1,1 -1,3 -1,4l0 0c0,1 0,3 0,4 1,1 1,2 2,2 2,1 3,2 5,3 2,0 4,1 7,2 6,1 10,3 12,5 3,2 4,5 4,8l0 0c0,2 0,4 -1,6 -1,1 -2,3 -4,4 -1,1 -3,2 -5,3 -2,0 -4,1 -6,1z"/>
    <polygon class="fil2" points="322,601 326,601 326,624 357,624 357,601 361,601 361,650 357,650 357,627 326,627 326,650 322,650 "/>
    <path class="fil2" d="M412 601l3 0 23 49 -4 0 -6 -14 -29 0 -6 14 -4 0 23 -49zm14 32l0 0 -13 -28 -13 28 26 0z"/>
    <path class="fil2" d="M466 601l20 0c3,0 5,1 7,1 2,1 4,2 6,3 2,3 3,5 3,8l0 0c0,2 -1,3 -1,5 -1,1 -1,2 -2,3 -1,1 -2,2 -3,2 -1,1 -2,1 -3,2 2,0 3,1 5,1 1,1 2,2 3,3 1,1 2,2 2,3 1,1 1,3 1,5l0 0c0,2 0,4 -1,5 -1,2 -2,3 -3,4 -2,2 -4,2 -6,3 -2,1 -4,1 -7,1l-21 0 0 -49zm19 23l0 0c2,0 4,0 6,-1 1,0 2,-1 4,-2 1,-1 2,-2 2,-3 1,-1 1,-3 1,-4l0 -1c0,-2 -1,-4 -3,-6 -2,-2 -5,-3 -9,-3l-17 0 0 20 16 0zm2 23l0 0c4,0 8,-1 10,-3 2,-2 4,-4 4,-7l0 0c0,-3 -2,-6 -4,-7 -3,-2 -6,-3 -11,-3l-17 0 0 20 18 0z"/>
    <polygon class="fil2" points="534,601 537,601 537,624 569,624 569,601 572,601 572,650 569,650 569,627 537,627 537,650 534,650 "/>
   </g>
  </g>
 </g>
</svg>
