<?xml version="1.0" standalone="no"?>
<!DOCTYPE svg PUBLIC "-//W3C//DTD SVG 20010904//EN"
 "http://www.w3.org/TR/2001/REC-SVG-20010904/DTD/svg10.dtd">
<svg version="1.0" xmlns="http://www.w3.org/2000/svg"
 width="1024.000000pt" height="1024.000000pt" viewBox="0 0 1024.000000 1024.000000"
 preserveAspectRatio="xMidYMid meet">

<g transform="translate(0.000000,1024.000000) scale(0.100000,-0.100000)"
fill="#ffffff" stroke="none">
<path d="M4915 9914 c-1309 -61 -2510 -632 -3378 -1604 -614 -689 -1015 -1538
-1157 -2447 -75 -486 -73 -1034 6 -1516 141 -863 492 -1628 1063 -2317 196
-236 528 -550 796 -751 453 -341 998 -612 1544 -768 1019 -292 2111 -241 3091
146 1109 437 2016 1272 2540 2338 175 357 286 665 374 1042 126 533 155 1165
80 1723 -282 2103 -1918 3774 -4015 4100 -263 41 -692 65 -944 54z"/>
</g>
</svg>
